# xmcd CD database file generated by OrangeCD 5.0
#
# Track frame offsets:
#	150
#	13604
#	28759
#	40814
#	52041
#	66318
#	71818
#	82557
#	89346
#	105823
#	117042
#	126053
#	132395
#
# Disc length: 1919 seconds
#
# Revision: 0
# Processed by: cddbd v1.4PL0 Copyright (c) Steve Scherf et al.
# Submitted via: OrangeCD 5.0
#
DISCID=a4077d0d
DTITLE=Dan Hicks - It Happened One Bite
DYEAR=1978
DGENRE=Country
TTITLE0=Cruizin'
TTITLE1=Crazy-'Cause He Is
TTITLE2=Garden In The Rain
TTITLE3=Boogaloo Jones
TTITLE4=Cloud My Sunny Mood
TTITLE5=Dizzy Dogs
TTITLE6=Vinnie's Lookin' Good
TTITLE7=Lovers For Life
TTITLE8=Collared Blues
TTITLE9=Waitin'
TTITLE10=Reveille Revisited
TTITLE11=Mama, I'm An Outlaw
TTITLE12=Boogaloo Plays Guitar
EXTD=
EXTT0=
EXTT1=
EXTT2=
EXTT3=
EXTT4=
EXTT5=
EXTT6=
EXTT7=
EXTT8=
EXTT9=
EXTT10=
EXTT11=
EXTT12=
PLAYORDER=
